<svg xmlns="http://www.w3.org/2000/svg" width="159.327" height="127.322" viewBox="0 0 159.327 127.322">
  <g id="グループ_185" data-name="グループ 185" transform="translate(-1919.422 -4255.049)">
    <g id="グループ_180" data-name="グループ 180">
      <g id="グループ_179" data-name="グループ 179">
        <path id="パス_703" data-name="パス 703" d="M1964.708,4373.1a4.6,4.6,0,0,0-3.793-1.837,4.572,4.572,0,1,0,.059,9.142,4.767,4.767,0,0,0,3.734-1.764l.844.638a5.715,5.715,0,0,1-4.652,2.1,5.439,5.439,0,0,1-5.734-5.629,5.81,5.81,0,0,1,10.386-3.29Z" fill="#fff"/>
        <path id="パス_704" data-name="パス 704" d="M1978.968,4377.215a4.1,4.1,0,1,1-4.1-4.164A4.068,4.068,0,0,1,1978.968,4377.215Zm-7.171.015a3.068,3.068,0,1,0,6.134,0,3.07,3.07,0,1,0-6.134,0Z" fill="#fff"/>
        <path id="パス_705" data-name="パス 705" d="M1986.285,4380.43a.89.89,0,1,1-1.779,0,.89.89,0,1,1,1.779,0Z" fill="#fff"/>
        <path id="パス_706" data-name="パス 706" d="M1993.007,4379.17l.963.46-1.466,2.741-.711-.3Z" fill="#fff"/>
        <path id="パス_707" data-name="パス 707" d="M2008.072,4370.489h1.066v9.6h4.09v1.038h-5.156Z" fill="#fff"/>
        <path id="パス_708" data-name="パス 708" d="M2019.052,4370.326h1.007v2.933h1.615v.889h-1.615v6.979h-1.007v-6.979h-1.392v-.889h1.392Z" fill="#fff"/>
        <path id="パス_709" data-name="パス 709" d="M2033.505,4379.778a3.988,3.988,0,0,1-3.17,1.541,4.135,4.135,0,0,1,.029-8.268,3.725,3.725,0,0,1,3.141,1.645v-4.475h1.007v10.906h-1.007Zm-6.164-2.578a3.156,3.156,0,0,0,3.1,3.2,3.186,3.186,0,0,0,.015-6.371A3.123,3.123,0,0,0,2027.341,4377.2Z" fill="#fff"/>
        <path id="パス_710" data-name="パス 710" d="M2042.572,4380.43a.889.889,0,1,1-1.778,0,.889.889,0,1,1,1.778,0Z" fill="#fff"/>
      </g>
    </g>
    <g id="グループ_182" data-name="グループ 182">
      <g id="グループ_181" data-name="グループ 181">
        <path id="パス_711" data-name="パス 711" d="M1966.565,4314.248h-12.389l-3.824-12.887a34.466,34.466,0,0,0-2.328-6.194,8.269,8.269,0,0,0-3.16-3.368,10.522,10.522,0,0,0-5.32-1.164h-8.4v23.613h-11.724v-58.2h23.53q10.642,0,15.714,4.2t5.072,13.094a13.569,13.569,0,0,1-3.035,9.229,14.107,14.107,0,0,1-8.356,4.49,11.531,11.531,0,0,1,6.4,4.9,41.307,41.307,0,0,1,3.99,9.479Zm-17-34.795q2.451-2.038,2.452-6.112t-2.452-6.111a9.5,9.5,0,0,0-6.277-2.037h-12.139v16.3h12.139A9.5,9.5,0,0,0,1949.562,4279.453Z" fill="#fff"/>
        <path id="パス_712" data-name="パス 712" d="M1981.746,4309.882q-6.155-5.362-6.153-15.838v-17.792q0-10.477,6.153-15.839t17.876-5.364q8.147,0,13.344,2.7a20.094,20.094,0,0,1,8.273,8.106l-8.4,5.82a18.337,18.337,0,0,0-5.363-5.736q-2.786-1.746-7.856-1.746-6.4,0-9.354,3.034t-2.952,9.022v17.792q0,5.987,2.952,9.021t9.354,3.034q5.487,0,8.522-1.87a16.686,16.686,0,0,0,5.445-6.028l8.315,6.153a30.377,30.377,0,0,1-5.487,6.152,19.374,19.374,0,0,1-6.86,3.534,35.216,35.216,0,0,1-9.935,1.206Q1987.9,4315.246,1981.746,4309.882Z" fill="#fff"/>
        <path id="パス_713" data-name="パス 713" d="M2059.958,4285.9l17.626,28.352h-13.3l-11.89-19.206-11.889,19.206h-13.053l18.457-29.682-17.626-28.519h13.22l11.972,19.373,11.973-19.373h12.971Z" fill="#fff"/>
      </g>
    </g>
    <g id="グループ_184" data-name="グループ 184">
      <g id="グループ_183" data-name="グループ 183">
        <path id="パス_714" data-name="パス 714" d="M1927.7,4358.328a12,12,0,0,1-4.061-2.193,22.459,22.459,0,0,1-3.387-3.736l4.732-3.936a14.591,14.591,0,0,0,3.961,4.011,8.985,8.985,0,0,0,4.758,1.171q3.934,0,5.728-1.146a4.048,4.048,0,0,0,1.794-3.687,2.821,2.821,0,0,0-.847-2.117,7.93,7.93,0,0,0-2.915-1.52,57.236,57.236,0,0,0-6.152-1.544,12.776,12.776,0,0,1-7.1-3.561,9.837,9.837,0,0,1-2.316-6.851,9.293,9.293,0,0,1,1.569-5.38,10.072,10.072,0,0,1,4.458-3.537,16.887,16.887,0,0,1,6.726-1.246,17.893,17.893,0,0,1,7.921,1.47,12.059,12.059,0,0,1,4.783,4.31l-4.634,3.786a33.859,33.859,0,0,0-2.565-2.367,7.685,7.685,0,0,0-2.317-1.27,9.835,9.835,0,0,0-3.188-.448,6.409,6.409,0,0,0-4.284,1.245,4.475,4.475,0,0,0-1.445,3.587,3.418,3.418,0,0,0,1.843,3.214,17.983,17.983,0,0,0,4.733,1.669,48.977,48.977,0,0,1,6.825,1.842,9.706,9.706,0,0,1,4.234,3.039,8.857,8.857,0,0,1,1.7,5.729q0,5.183-3.613,7.722t-10.934,2.541A19.4,19.4,0,0,1,1927.7,4358.328Z" fill="#fff"/>
        <path id="パス_715" data-name="パス 715" d="M1976.214,4350.407h-13.649l-2.342,8.12H1953.2l8.518-27.8a20.594,20.594,0,0,1,1.894-4.634,6.019,6.019,0,0,1,2.366-2.341,7.487,7.487,0,0,1,3.412-.7,7.336,7.336,0,0,1,3.388.7,6.239,6.239,0,0,1,2.366,2.341,19.737,19.737,0,0,1,1.918,4.634l8.52,27.8h-7.025Zm-1.543-5.232-4.185-14.346q-.349-1.3-1.1-1.3t-1.1,1.3l-4.185,14.346Z" fill="#fff"/>
        <path id="パス_716" data-name="パス 716" d="M1993.724,4355.737q-2.765-2.788-2.764-8.07v-24.012h7.024v24.012a5.9,5.9,0,0,0,1.195,4.06,4.735,4.735,0,0,0,3.687,1.32h11.159v5.48h-11.159Q1996.49,4358.527,1993.724,4355.737Z" fill="#fff"/>
        <path id="パス_717" data-name="パス 717" d="M2023.117,4355.737q-2.891-2.788-2.89-8.07v-13.152q0-5.28,2.89-8.071t9.515-2.789h11.658v5.479h-11.658a5.6,5.6,0,0,0-4.06,1.3,5.52,5.52,0,0,0-1.32,4.086v3.836H2042.1v5.48h-14.845v3.836a4.7,4.7,0,0,0,5.38,5.38h11.757v5.48h-11.757Q2026.005,4358.527,2023.117,4355.737Z" fill="#fff"/>
        <path id="パス_718" data-name="パス 718" d="M2058.2,4358.328a12.009,12.009,0,0,1-4.061-2.193,22.465,22.465,0,0,1-3.387-3.736l4.732-3.936a14.593,14.593,0,0,0,3.961,4.011,8.984,8.984,0,0,0,4.758,1.171q3.935,0,5.728-1.146a4.046,4.046,0,0,0,1.794-3.687,2.824,2.824,0,0,0-.846-2.117,7.946,7.946,0,0,0-2.915-1.52,57.332,57.332,0,0,0-6.153-1.544,12.769,12.769,0,0,1-7.1-3.561,9.833,9.833,0,0,1-2.317-6.851,9.293,9.293,0,0,1,1.569-5.38,10.072,10.072,0,0,1,4.458-3.537,16.886,16.886,0,0,1,6.726-1.246,17.9,17.9,0,0,1,7.921,1.47,12.059,12.059,0,0,1,4.783,4.31l-4.634,3.786a33.885,33.885,0,0,0-2.565-2.367,7.694,7.694,0,0,0-2.316-1.27,9.845,9.845,0,0,0-3.189-.448,6.409,6.409,0,0,0-4.284,1.245,4.474,4.474,0,0,0-1.444,3.587,3.417,3.417,0,0,0,1.842,3.214,17.984,17.984,0,0,0,4.733,1.669,48.944,48.944,0,0,1,6.825,1.842,9.705,9.705,0,0,1,4.234,3.039,8.856,8.856,0,0,1,1.7,5.729q0,5.183-3.613,7.722t-10.934,2.541A19.4,19.4,0,0,1,2058.2,4358.328Z" fill="#fff"/>
      </g>
    </g>
  </g>
</svg>
