<svg xmlns="http://www.w3.org/2000/svg" width="86.189" height="68.209" viewBox="0 0 86.189 68.209">
  <g id="グループ_1170" data-name="グループ 1170" transform="translate(-60.896 -29.926)">
    <g id="グループ_1165" data-name="グループ 1165">
      <g id="グループ_1164" data-name="グループ 1164">
        <path id="パス_1425" data-name="パス 1425" d="M85.05,93.168a2.457,2.457,0,0,0-2.031-.984,2.448,2.448,0,1,0,.032,4.9,2.551,2.551,0,0,0,2-.944l.453.341A3.062,3.062,0,0,1,83.011,97.6a2.989,2.989,0,1,1,0-5.975,2.948,2.948,0,0,1,2.492,1.2Z" fill="#7d6a50"/>
        <path id="パス_1426" data-name="パス 1426" d="M92.859,95.374a2.2,2.2,0,1,1-2.2-2.23A2.178,2.178,0,0,1,92.859,95.374Zm-3.84.007a1.643,1.643,0,1,0,3.285,0,1.644,1.644,0,1,0-3.285,0Z" fill="#7d6a50"/>
        <path id="パス_1427" data-name="パス 1427" d="M96.954,97.1a.476.476,0,1,1-.476-.484A.485.485,0,0,1,96.954,97.1Z" fill="#7d6a50"/>
        <path id="パス_1428" data-name="パス 1428" d="M100.726,96.421l.516.246-.785,1.468-.381-.159Z" fill="#7d6a50"/>
        <path id="パス_1429" data-name="パス 1429" d="M108.8,91.771h.571v5.142h2.19v.555H108.8Z" fill="#7d6a50"/>
        <path id="パス_1430" data-name="パス 1430" d="M114.855,91.684h.54v1.571h.864v.476h-.864v3.737h-.54V93.731h-.746v-.476h.746Z" fill="#7d6a50"/>
        <path id="パス_1431" data-name="パス 1431" d="M122.767,96.746a2.132,2.132,0,0,1-1.7.825,2.214,2.214,0,0,1,.016-4.427,1.994,1.994,0,0,1,1.682.881v-2.4h.54v5.84h-.54Zm-3.3-1.38a1.69,1.69,0,0,0,1.659,1.713,1.706,1.706,0,0,0,.007-3.411A1.673,1.673,0,0,0,119.466,95.366Z" fill="#7d6a50"/>
        <path id="パス_1432" data-name="パス 1432" d="M127.786,97.1a.476.476,0,1,1-.952,0,.476.476,0,1,1,.952,0Z" fill="#7d6a50"/>
      </g>
    </g>
    <g id="グループ_1167" data-name="グループ 1167">
      <g id="グループ_1166" data-name="グループ 1166">
        <path id="パス_1433" data-name="パス 1433" d="M86.151,61.64H79.515l-2.05-6.9a18.389,18.389,0,0,0-1.247-3.319,4.434,4.434,0,0,0-1.692-1.8,5.648,5.648,0,0,0-2.851-.623h-4.5V61.64H60.9V30.46H73.5q5.7,0,8.418,2.25t2.717,7.015a7.268,7.268,0,0,1-1.626,4.944,7.555,7.555,0,0,1-4.476,2.405A6.177,6.177,0,0,1,81.964,49.7,22.119,22.119,0,0,1,84.1,54.78ZM77.043,43a4.015,4.015,0,0,0,1.314-3.274,4.015,4.015,0,0,0-1.314-3.274A5.094,5.094,0,0,0,73.68,35.36h-6.5v8.73h6.5A5.088,5.088,0,0,0,77.043,43Z" fill="#7d6a50"/>
        <path id="パス_1434" data-name="パス 1434" d="M94.708,59.3q-3.3-2.872-3.3-8.485V41.284q0-5.613,3.3-8.485t9.576-2.873a15.473,15.473,0,0,1,7.149,1.447,10.766,10.766,0,0,1,4.432,4.343l-4.5,3.118a9.829,9.829,0,0,0-2.873-3.073,7.929,7.929,0,0,0-4.209-.936q-3.43,0-5.011,1.626a6.669,6.669,0,0,0-1.581,4.833v9.532a6.669,6.669,0,0,0,1.581,4.833q1.581,1.626,5.011,1.625a8.72,8.72,0,0,0,4.566-1,8.949,8.949,0,0,0,2.917-3.229l4.454,3.3a16.235,16.235,0,0,1-2.94,3.3,10.355,10.355,0,0,1-3.674,1.893,18.854,18.854,0,0,1-5.323.646Q98,62.174,94.708,59.3Z" fill="#7d6a50"/>
        <path id="パス_1435" data-name="パス 1435" d="M137,46.451l9.443,15.189h-7.127l-6.369-10.29-6.37,10.29H119.58l9.888-15.9L120.025,30.46h7.083l6.413,10.378,6.414-10.378h6.949Z" fill="#7d6a50"/>
      </g>
    </g>
    <g id="グループ_1169" data-name="グループ 1169">
      <g id="グループ_1168" data-name="グループ 1168">
        <path id="パス_1436" data-name="パス 1436" d="M65.309,85.254a6.423,6.423,0,0,1-2.175-1.174,12.076,12.076,0,0,1-1.815-2l2.536-2.108a7.814,7.814,0,0,0,2.121,2.148,4.814,4.814,0,0,0,2.549.627,5.871,5.871,0,0,0,3.069-.614,2.169,2.169,0,0,0,.961-1.975,1.514,1.514,0,0,0-.454-1.134,4.26,4.26,0,0,0-1.561-.814,30.584,30.584,0,0,0-3.3-.827,6.848,6.848,0,0,1-3.8-1.908A5.267,5.267,0,0,1,62.2,71.8a4.971,4.971,0,0,1,.841-2.882,5.387,5.387,0,0,1,2.388-1.895,9.037,9.037,0,0,1,3.6-.668,9.579,9.579,0,0,1,4.244.788,6.465,6.465,0,0,1,2.562,2.308l-2.482,2.029a18.053,18.053,0,0,0-1.375-1.268,4.088,4.088,0,0,0-1.241-.681,5.273,5.273,0,0,0-1.708-.24,3.435,3.435,0,0,0-2.295.667,2.4,2.4,0,0,0-.774,1.922A1.83,1.83,0,0,0,66.95,73.6a9.6,9.6,0,0,0,2.536.894,26.418,26.418,0,0,1,3.656.988,5.209,5.209,0,0,1,2.269,1.628,5.489,5.489,0,0,1-1.028,7.206q-1.935,1.36-5.858,1.361A10.409,10.409,0,0,1,65.309,85.254Z" fill="#7d6a50"/>
        <path id="パス_1437" data-name="パス 1437" d="M91.514,81.011H84.2l-1.255,4.35H79.184l4.564-14.893a11.052,11.052,0,0,1,1.014-2.482,3.221,3.221,0,0,1,1.268-1.254,4.007,4.007,0,0,1,1.828-.374,3.921,3.921,0,0,1,1.815.374,3.347,3.347,0,0,1,1.268,1.254,10.638,10.638,0,0,1,1.027,2.482l4.564,14.893H92.769Zm-.827-2.8-2.242-7.686q-.187-.695-.587-.694t-.587.694l-2.242,7.686Z" fill="#7d6a50"/>
        <path id="パス_1438" data-name="パス 1438" d="M101.122,83.866a5.886,5.886,0,0,1-1.481-4.323V66.679H103.4V79.543a3.161,3.161,0,0,0,.641,2.175,2.537,2.537,0,0,0,1.975.707H112v2.936H106.02Q102.6,85.361,101.122,83.866Z" fill="#7d6a50"/>
        <path id="パス_1439" data-name="パス 1439" d="M117.082,83.866a5.729,5.729,0,0,1-1.548-4.323V72.5a5.733,5.733,0,0,1,1.548-4.324q1.546-1.494,5.1-1.494h6.245v2.935h-6.245a3,3,0,0,0-2.175.694A2.956,2.956,0,0,0,119.3,72.5v2.055h7.953v2.936H119.3v2.055a2.519,2.519,0,0,0,2.882,2.882h6.3v2.936h-6.3Q118.63,85.361,117.082,83.866Z" fill="#7d6a50"/>
        <path id="パス_1440" data-name="パス 1440" d="M136.075,85.254A6.418,6.418,0,0,1,133.9,84.08a11.989,11.989,0,0,1-1.815-2l2.535-2.108a7.816,7.816,0,0,0,2.122,2.148,4.809,4.809,0,0,0,2.549.627,5.873,5.873,0,0,0,3.069-.614,2.168,2.168,0,0,0,.96-1.975,1.513,1.513,0,0,0-.453-1.134,4.26,4.26,0,0,0-1.561-.814,30.616,30.616,0,0,0-3.3-.827,6.852,6.852,0,0,1-3.8-1.908,5.272,5.272,0,0,1-1.241-3.67,4.978,4.978,0,0,1,.841-2.882,5.393,5.393,0,0,1,2.388-1.895,9.037,9.037,0,0,1,3.6-.668,9.576,9.576,0,0,1,4.244.788,6.452,6.452,0,0,1,2.562,2.308l-2.482,2.029a18.262,18.262,0,0,0-1.374-1.268,4.1,4.1,0,0,0-1.241-.681,5.275,5.275,0,0,0-1.709-.24,3.43,3.43,0,0,0-2.294.667,2.4,2.4,0,0,0-.774,1.922,1.828,1.828,0,0,0,.987,1.721,9.577,9.577,0,0,0,2.536.894,26.458,26.458,0,0,1,3.656.988,5.206,5.206,0,0,1,2.268,1.628,5.487,5.487,0,0,1-1.027,7.206q-1.937,1.36-5.858,1.361A10.416,10.416,0,0,1,136.075,85.254Z" fill="#7d6a50"/>
      </g>
    </g>
  </g>
</svg>
